<svg width="642" height="345" viewBox="0 0 642 345" fill="none" xmlns="http://www.w3.org/2000/svg">
<rect width="642" height="345" fill="black"/>
<path d="M79.5547 132.008L82.8125 131V102.031L79.3906 101.234L79.2266 100.93L79.5547 99.0312H90.7109L90.8047 99.2422L90.5703 101.023L87.1953 102.031V131L90.7578 131.797L90.9219 132.125L90.5703 134H79.4375L79.3203 133.789L79.5547 132.008ZM110.984 112.977C108.812 112.977 106.406 113.578 103.766 114.781V131L107.516 131.797L107.609 132.125L107.352 134H96.8516L96.6875 133.789L96.9219 132.008L100.016 131V115.344L96.7578 113.914L96.5234 113.633L96.7578 112.367L102.922 109.883L103.32 110.094V112.977C106.914 110.617 109.852 109.438 112.133 109.438C115.18 109.438 117.32 110.617 118.555 112.977C118.711 112.82 119.117 112.555 119.773 112.18L121.625 111.172C123.797 110.016 125.594 109.438 127.016 109.438C128.453 109.438 129.633 109.625 130.555 110C131.477 110.375 132.25 110.906 132.875 111.594C134.141 112.984 134.773 114.938 134.773 117.453V131L138.852 131.797L139.039 132.125L138.734 134H127.555L127.461 133.789L127.672 132.008L131.023 131V118.555C131.023 114.836 129.445 112.977 126.289 112.977C124.008 112.977 121.648 113.539 119.211 114.664C119.445 115.805 119.562 116.734 119.562 117.453V131L123.289 131.797L123.453 132.125L123.148 134H112.297L112.203 133.789L112.414 132.008L115.789 131V118.555C115.789 114.836 114.188 112.977 110.984 112.977ZM163.344 130.789C162.266 132.039 160.977 133.031 159.477 133.766C157.977 134.484 156.391 134.844 154.719 134.844C153.047 134.844 151.203 134.562 149.188 134V143.117L153.875 143.938L153.992 144.266L153.734 146.164H142.297L142.133 145.859L142.344 144.172L145.461 143.117V115.344L142.18 113.844L141.969 113.562L142.18 112.297L148.367 109.883L148.742 110.094V112.625C151.414 110.5 153.922 109.438 156.266 109.438C159.422 109.438 161.969 110.547 163.906 112.766C165.797 114.938 166.742 117.727 166.742 121.133C166.742 124.945 165.609 128.164 163.344 130.789ZM154.18 113.023C152.602 113.023 150.938 113.484 149.188 114.406V129.148C150.172 130.352 151.492 131.25 153.148 131.844C153.883 132.094 154.727 132.219 155.68 132.219C156.648 132.219 157.578 131.984 158.469 131.516C159.359 131.047 160.125 130.391 160.766 129.547C162.141 127.734 162.828 125.43 162.828 122.633C162.828 119.586 162.078 117.211 160.578 115.508C159.141 113.852 157.008 113.023 154.18 113.023ZM179.938 130.883C180.609 131.164 181.578 131.305 182.844 131.305C184.109 131.305 185.945 130.602 188.352 129.195V115.297L185.023 113.844L184.883 113.562L185.023 112.297L191.656 109.883L192.102 110.047V129.312C192.102 129.641 192.156 129.898 192.266 130.086C192.391 130.273 192.578 130.367 192.828 130.367C193.078 130.367 193.375 130.352 193.719 130.32L194.727 130.227C195.133 130.18 195.562 130.133 196.016 130.086L196.297 130.414L195.734 132.359L189.336 134.539L189.008 134.211L188.727 131.305L188.516 131.258L187.391 132.078C186.156 132.969 184.984 133.648 183.875 134.117C182.781 134.602 181.766 134.844 180.828 134.844C179.906 134.844 178.961 134.648 177.992 134.258C177.023 133.883 176.203 133.344 175.531 132.641C174.172 131.219 173.492 129.266 173.492 126.781V114.664L171.172 113.516L170.961 113.258L171.172 111.969L176.867 109.883L177.242 110.094V125.727C177.242 128.43 178.141 130.148 179.938 130.883ZM214.953 112.977C212.781 112.977 210.375 113.578 207.734 114.781V131L211.484 131.797L211.578 132.125L211.32 134H200.82L200.656 133.789L200.891 132.008L203.984 131V115.344L200.727 113.914L200.492 113.633L200.727 112.367L206.891 109.883L207.289 110.094V112.977C210.883 110.617 213.82 109.438 216.102 109.438C219.148 109.438 221.289 110.617 222.523 112.977C222.68 112.82 223.086 112.555 223.742 112.18L225.594 111.172C227.766 110.016 229.562 109.438 230.984 109.438C232.422 109.438 233.602 109.625 234.523 110C235.445 110.375 236.219 110.906 236.844 111.594C238.109 112.984 238.742 114.938 238.742 117.453V131L242.82 131.797L243.008 132.125L242.703 134H231.523L231.43 133.789L231.641 132.008L234.992 131V118.555C234.992 114.836 233.414 112.977 230.258 112.977C227.977 112.977 225.617 113.539 223.18 114.664C223.414 115.805 223.531 116.734 223.531 117.453V131L227.258 131.797L227.422 132.125L227.117 134H216.266L216.172 133.789L216.383 132.008L219.758 131V118.555C219.758 114.836 218.156 112.977 214.953 112.977ZM265.32 128.68C266.133 129.008 266.578 129.586 266.656 130.414C264.266 132.68 261.859 134.094 259.438 134.656C258.906 134.781 258.367 134.844 257.82 134.844C254.539 134.844 251.875 133.688 249.828 131.375C247.797 129.109 246.781 126.281 246.781 122.891C246.781 119.203 247.992 116.031 250.414 113.375C251.523 112.156 252.805 111.195 254.258 110.492C255.711 109.789 257.18 109.438 258.664 109.438C260.164 109.438 261.43 109.703 262.461 110.234C263.508 110.75 264.375 111.453 265.062 112.344C266.438 114.094 267.125 116.328 267.125 119.047C267.125 119.812 267.055 120.477 266.914 121.039C266.742 121.43 263.531 121.625 257.281 121.625C255.203 121.625 253.008 121.594 250.695 121.531C250.727 124.516 251.688 126.922 253.578 128.75C255.266 130.375 257.172 131.188 259.297 131.188C261.422 131.188 263.43 130.352 265.32 128.68ZM252.641 119.375C257.328 119.375 260.75 119.227 262.906 118.93C262.906 117.258 262.406 115.719 261.406 114.312C260.312 112.797 259.008 112.039 257.492 112.039C255.836 112.039 254.406 112.656 253.203 113.891C251.906 115.188 251.109 117.016 250.812 119.375H252.641ZM272.117 132.008L275.164 131V100.812L271.484 99.875L271.227 99.5469L271.484 98.2812L278.539 95.6562L278.914 95.8672V131L282.664 131.797L282.852 132.125L282.5 134H272.023L271.906 133.789L272.117 132.008ZM305.398 128.68C306.211 129.008 306.656 129.586 306.734 130.414C304.344 132.68 301.938 134.094 299.516 134.656C298.984 134.781 298.445 134.844 297.898 134.844C294.617 134.844 291.953 133.688 289.906 131.375C287.875 129.109 286.859 126.281 286.859 122.891C286.859 119.203 288.07 116.031 290.492 113.375C291.602 112.156 292.883 111.195 294.336 110.492C295.789 109.789 297.258 109.438 298.742 109.438C300.242 109.438 301.508 109.703 302.539 110.234C303.586 110.75 304.453 111.453 305.141 112.344C306.516 114.094 307.203 116.328 307.203 119.047C307.203 119.812 307.133 120.477 306.992 121.039C306.82 121.43 303.609 121.625 297.359 121.625C295.281 121.625 293.086 121.594 290.773 121.531C290.805 124.516 291.766 126.922 293.656 128.75C295.344 130.375 297.25 131.188 299.375 131.188C301.5 131.188 303.508 130.352 305.398 128.68ZM292.719 119.375C297.406 119.375 300.828 119.227 302.984 118.93C302.984 117.258 302.484 115.719 301.484 114.312C300.391 112.797 299.086 112.039 297.57 112.039C295.914 112.039 294.484 112.656 293.281 113.891C291.984 115.188 291.188 117.016 290.891 119.375H292.719ZM312.195 132.008L315.242 131V100.812L311.562 99.875L311.305 99.5469L311.562 98.2812L318.617 95.6562L318.992 95.8672V131L322.742 131.797L322.93 132.125L322.578 134H312.102L311.984 133.789L312.195 132.008ZM327.125 122.516C327.125 120.75 327.453 119.062 328.109 117.453C328.781 115.844 329.688 114.445 330.828 113.258C333.281 110.711 336.195 109.438 339.57 109.438C343.055 109.438 345.852 110.609 347.961 112.953C349.992 115.203 351.008 118.109 351.008 121.672C351.008 125.391 349.789 128.531 347.352 131.094C344.961 133.594 342.047 134.844 338.609 134.844C335.219 134.844 332.438 133.648 330.266 131.258C328.172 128.945 327.125 126.031 327.125 122.516ZM333.289 114.266C332.648 115.016 332.156 115.969 331.812 117.125C331.469 118.266 331.297 119.633 331.297 121.227C331.297 122.805 331.547 124.266 332.047 125.609C332.547 126.953 333.195 128.117 333.992 129.102C335.68 131.18 337.562 132.219 339.641 132.219C343.078 132.219 345.297 130.594 346.297 127.344C346.656 126.203 346.836 124.812 346.836 123.172C346.836 121.531 346.578 120.023 346.062 118.648C345.562 117.273 344.914 116.102 344.117 115.133C343.336 114.148 342.461 113.391 341.492 112.859C340.539 112.312 339.547 112.039 338.516 112.039C337.5 112.039 336.531 112.227 335.609 112.602C334.703 112.961 333.93 113.516 333.289 114.266ZM371.633 132.008L374.891 131V102.031L371.469 101.234L371.305 100.93L371.633 99.0312H382.789L382.883 99.2422L382.648 101.023L379.273 102.031V131L382.836 131.797L383 132.125L382.648 134H371.516L371.398 133.789L371.633 132.008ZM402.43 112.977C400.258 112.977 397.852 113.578 395.211 114.781V131L398.961 131.797L399.055 132.125L398.797 134H388.297L388.133 133.789L388.367 132.008L391.461 131V115.344L388.203 113.914L387.969 113.633L388.203 112.367L394.367 109.883L394.766 110.094V112.977C398.359 110.617 401.297 109.438 403.578 109.438C405.922 109.438 407.75 110.156 409.062 111.594C410.359 113 411.008 114.953 411.008 117.453V131L415.062 131.797L415.18 132.125L414.898 134H403.742L403.648 133.789L403.859 132.008L407.234 131V118.555C407.234 114.836 405.633 112.977 402.43 112.977ZM432.664 114.195C430.664 112.648 428.625 111.875 426.547 111.875C425.156 111.875 424.219 112.547 423.734 113.891C423.578 114.281 423.5 114.773 423.5 115.367C423.5 115.961 423.664 116.531 423.992 117.078C424.336 117.609 424.781 118.086 425.328 118.508C425.891 118.93 426.531 119.312 427.25 119.656L429.406 120.711C431.344 121.648 432.648 122.453 433.32 123.125C434.664 124.5 435.336 126.102 435.336 127.93C435.336 129.977 434.477 131.656 432.758 132.969C431.086 134.219 429 134.844 426.5 134.844C424.406 134.844 422.773 134.625 421.602 134.188C420.445 133.766 419.633 133.391 419.164 133.062C419.273 131.625 419.844 130.43 420.875 129.477C422.406 130.789 424.055 131.688 425.82 132.172C426.43 132.328 427.016 132.406 427.578 132.406C428.156 132.406 428.695 132.344 429.195 132.219C429.711 132.094 430.156 131.891 430.531 131.609C431.391 131.016 431.82 130.25 431.82 129.312C431.82 128.359 431.648 127.617 431.305 127.086C430.977 126.555 430.531 126.086 429.969 125.68C429.422 125.273 428.797 124.906 428.094 124.578L425.891 123.594C424 122.734 422.711 121.953 422.023 121.25C420.664 119.859 419.984 118.227 419.984 116.352C419.984 114.383 420.797 112.734 422.422 111.406C424 110.094 425.969 109.438 428.328 109.438C430.547 109.438 432.625 109.789 434.562 110.492C434.453 111.211 434.211 111.914 433.836 112.602C433.461 113.273 433.07 113.805 432.664 114.195ZM448.859 131.258C450.578 131.258 452.367 130.891 454.227 130.156C454.789 130.5 455.102 131.047 455.164 131.797C452.414 133.828 450.133 134.844 448.32 134.844C446.195 134.844 444.578 134.141 443.469 132.734C442.5 131.5 442.016 129.828 442.016 127.719V112.977H438.945C438.82 112.711 438.758 112.445 438.758 112.18C438.758 111.852 438.875 111.539 439.109 111.242L442.531 110.047L444.242 103.719H445.836V110.445C447.57 110.445 450.289 110.367 453.992 110.211C453.992 110.289 454 110.367 454.016 110.445L454.039 111.031C454.039 111.891 453.852 112.539 453.477 112.977H445.836V127.531C445.836 128.578 446.039 129.359 446.445 129.875C447.148 130.797 447.953 131.258 448.859 131.258ZM467.516 104.492C467.094 104.93 466.703 105.234 466.344 105.406C465.984 105.578 465.625 105.664 465.266 105.664C464.922 105.664 464.578 105.594 464.234 105.453C463.906 105.297 463.609 105.094 463.344 104.844C462.734 104.297 462.43 103.766 462.43 103.25C462.43 102.734 462.5 102.312 462.641 101.984C462.797 101.641 463 101.328 463.25 101.047C463.812 100.422 464.469 100.109 465.219 100.109C465.906 100.109 466.484 100.312 466.953 100.719C467.766 101.422 468.172 102.102 468.172 102.758C468.172 103.461 467.953 104.039 467.516 104.492ZM460.438 132.008L463.531 131V115.508L460.273 114.125L460.016 113.844L460.273 112.578L466.883 109.883L467.281 110.094V131L471.031 131.797L471.125 132.125L470.867 134H460.367L460.203 133.789L460.438 132.008ZM484.859 131.258C486.578 131.258 488.367 130.891 490.227 130.156C490.789 130.5 491.102 131.047 491.164 131.797C488.414 133.828 486.133 134.844 484.32 134.844C482.195 134.844 480.578 134.141 479.469 132.734C478.5 131.5 478.016 129.828 478.016 127.719V112.977H474.945C474.82 112.711 474.758 112.445 474.758 112.18C474.758 111.852 474.875 111.539 475.109 111.242L478.531 110.047L480.242 103.719H481.836V110.445C483.57 110.445 486.289 110.367 489.992 110.211C489.992 110.289 490 110.367 490.016 110.445L490.039 111.031C490.039 111.891 489.852 112.539 489.477 112.977H481.836V127.531C481.836 128.578 482.039 129.359 482.445 129.875C483.148 130.797 483.953 131.258 484.859 131.258ZM504.125 130.883C504.797 131.164 505.766 131.305 507.031 131.305C508.297 131.305 510.133 130.602 512.539 129.195V115.297L509.211 113.844L509.07 113.562L509.211 112.297L515.844 109.883L516.289 110.047V129.312C516.289 129.641 516.344 129.898 516.453 130.086C516.578 130.273 516.766 130.367 517.016 130.367C517.266 130.367 517.562 130.352 517.906 130.32L518.914 130.227C519.32 130.18 519.75 130.133 520.203 130.086L520.484 130.414L519.922 132.359L513.523 134.539L513.195 134.211L512.914 131.305L512.703 131.258L511.578 132.078C510.344 132.969 509.172 133.648 508.062 134.117C506.969 134.602 505.953 134.844 505.016 134.844C504.094 134.844 503.148 134.648 502.18 134.258C501.211 133.883 500.391 133.344 499.719 132.641C498.359 131.219 497.68 129.266 497.68 126.781V114.664L495.359 113.516L495.148 113.258L495.359 111.969L501.055 109.883L501.43 110.094V125.727C501.43 128.43 502.328 130.148 504.125 130.883ZM532.906 131.258C534.625 131.258 536.414 130.891 538.273 130.156C538.836 130.5 539.148 131.047 539.211 131.797C536.461 133.828 534.18 134.844 532.367 134.844C530.242 134.844 528.625 134.141 527.516 132.734C526.547 131.5 526.062 129.828 526.062 127.719V112.977H522.992C522.867 112.711 522.805 112.445 522.805 112.18C522.805 111.852 522.922 111.539 523.156 111.242L526.578 110.047L528.289 103.719H529.883V110.445C531.617 110.445 534.336 110.367 538.039 110.211C538.039 110.289 538.047 110.367 538.062 110.445L538.086 111.031C538.086 111.891 537.898 112.539 537.523 112.977H529.883V127.531C529.883 128.578 530.086 129.359 530.492 129.875C531.195 130.797 532 131.258 532.906 131.258ZM561.617 128.68C562.43 129.008 562.875 129.586 562.953 130.414C560.562 132.68 558.156 134.094 555.734 134.656C555.203 134.781 554.664 134.844 554.117 134.844C550.836 134.844 548.172 133.688 546.125 131.375C544.094 129.109 543.078 126.281 543.078 122.891C543.078 119.203 544.289 116.031 546.711 113.375C547.82 112.156 549.102 111.195 550.555 110.492C552.008 109.789 553.477 109.438 554.961 109.438C556.461 109.438 557.727 109.703 558.758 110.234C559.805 110.75 560.672 111.453 561.359 112.344C562.734 114.094 563.422 116.328 563.422 119.047C563.422 119.812 563.352 120.477 563.211 121.039C563.039 121.43 559.828 121.625 553.578 121.625C551.5 121.625 549.305 121.594 546.992 121.531C547.023 124.516 547.984 126.922 549.875 128.75C551.562 130.375 553.469 131.188 555.594 131.188C557.719 131.188 559.727 130.352 561.617 128.68ZM548.938 119.375C553.625 119.375 557.047 119.227 559.203 118.93C559.203 117.258 558.703 115.719 557.703 114.312C556.609 112.797 555.305 112.039 553.789 112.039C552.133 112.039 550.703 112.656 549.5 113.891C548.203 115.188 547.406 117.016 547.109 119.375H548.938Z" fill="white"/>
<path d="M79.5547 132.008L82.8125 131V102.031L79.3906 101.234L79.2266 100.93L79.5547 99.0312H90.7109L90.8047 99.2422L90.5703 101.023L87.1953 102.031V131L90.7578 131.797L90.9219 132.125L90.5703 134H79.4375L79.3203 133.789L79.5547 132.008ZM110.984 112.977C108.812 112.977 106.406 113.578 103.766 114.781V131L107.516 131.797L107.609 132.125L107.352 134H96.8516L96.6875 133.789L96.9219 132.008L100.016 131V115.344L96.7578 113.914L96.5234 113.633L96.7578 112.367L102.922 109.883L103.32 110.094V112.977C106.914 110.617 109.852 109.438 112.133 109.438C115.18 109.438 117.32 110.617 118.555 112.977C118.711 112.82 119.117 112.555 119.773 112.18L121.625 111.172C123.797 110.016 125.594 109.438 127.016 109.438C128.453 109.438 129.633 109.625 130.555 110C131.477 110.375 132.25 110.906 132.875 111.594C134.141 112.984 134.773 114.938 134.773 117.453V131L138.852 131.797L139.039 132.125L138.734 134H127.555L127.461 133.789L127.672 132.008L131.023 131V118.555C131.023 114.836 129.445 112.977 126.289 112.977C124.008 112.977 121.648 113.539 119.211 114.664C119.445 115.805 119.562 116.734 119.562 117.453V131L123.289 131.797L123.453 132.125L123.148 134H112.297L112.203 133.789L112.414 132.008L115.789 131V118.555C115.789 114.836 114.188 112.977 110.984 112.977ZM163.344 130.789C162.266 132.039 160.977 133.031 159.477 133.766C157.977 134.484 156.391 134.844 154.719 134.844C153.047 134.844 151.203 134.562 149.188 134V143.117L153.875 143.938L153.992 144.266L153.734 146.164H142.297L142.133 145.859L142.344 144.172L145.461 143.117V115.344L142.18 113.844L141.969 113.562L142.18 112.297L148.367 109.883L148.742 110.094V112.625C151.414 110.5 153.922 109.438 156.266 109.438C159.422 109.438 161.969 110.547 163.906 112.766C165.797 114.938 166.742 117.727 166.742 121.133C166.742 124.945 165.609 128.164 163.344 130.789ZM154.18 113.023C152.602 113.023 150.938 113.484 149.188 114.406V129.148C150.172 130.352 151.492 131.25 153.148 131.844C153.883 132.094 154.727 132.219 155.68 132.219C156.648 132.219 157.578 131.984 158.469 131.516C159.359 131.047 160.125 130.391 160.766 129.547C162.141 127.734 162.828 125.43 162.828 122.633C162.828 119.586 162.078 117.211 160.578 115.508C159.141 113.852 157.008 113.023 154.18 113.023ZM179.938 130.883C180.609 131.164 181.578 131.305 182.844 131.305C184.109 131.305 185.945 130.602 188.352 129.195V115.297L185.023 113.844L184.883 113.562L185.023 112.297L191.656 109.883L192.102 110.047V129.312C192.102 129.641 192.156 129.898 192.266 130.086C192.391 130.273 192.578 130.367 192.828 130.367C193.078 130.367 193.375 130.352 193.719 130.32L194.727 130.227C195.133 130.18 195.562 130.133 196.016 130.086L196.297 130.414L195.734 132.359L189.336 134.539L189.008 134.211L188.727 131.305L188.516 131.258L187.391 132.078C186.156 132.969 184.984 133.648 183.875 134.117C182.781 134.602 181.766 134.844 180.828 134.844C179.906 134.844 178.961 134.648 177.992 134.258C177.023 133.883 176.203 133.344 175.531 132.641C174.172 131.219 173.492 129.266 173.492 126.781V114.664L171.172 113.516L170.961 113.258L171.172 111.969L176.867 109.883L177.242 110.094V125.727C177.242 128.43 178.141 130.148 179.938 130.883ZM214.953 112.977C212.781 112.977 210.375 113.578 207.734 114.781V131L211.484 131.797L211.578 132.125L211.32 134H200.82L200.656 133.789L200.891 132.008L203.984 131V115.344L200.727 113.914L200.492 113.633L200.727 112.367L206.891 109.883L207.289 110.094V112.977C210.883 110.617 213.82 109.438 216.102 109.438C219.148 109.438 221.289 110.617 222.523 112.977C222.68 112.82 223.086 112.555 223.742 112.18L225.594 111.172C227.766 110.016 229.562 109.438 230.984 109.438C232.422 109.438 233.602 109.625 234.523 110C235.445 110.375 236.219 110.906 236.844 111.594C238.109 112.984 238.742 114.938 238.742 117.453V131L242.82 131.797L243.008 132.125L242.703 134H231.523L231.43 133.789L231.641 132.008L234.992 131V118.555C234.992 114.836 233.414 112.977 230.258 112.977C227.977 112.977 225.617 113.539 223.18 114.664C223.414 115.805 223.531 116.734 223.531 117.453V131L227.258 131.797L227.422 132.125L227.117 134H216.266L216.172 133.789L216.383 132.008L219.758 131V118.555C219.758 114.836 218.156 112.977 214.953 112.977ZM265.32 128.68C266.133 129.008 266.578 129.586 266.656 130.414C264.266 132.68 261.859 134.094 259.438 134.656C258.906 134.781 258.367 134.844 257.82 134.844C254.539 134.844 251.875 133.688 249.828 131.375C247.797 129.109 246.781 126.281 246.781 122.891C246.781 119.203 247.992 116.031 250.414 113.375C251.523 112.156 252.805 111.195 254.258 110.492C255.711 109.789 257.18 109.438 258.664 109.438C260.164 109.438 261.43 109.703 262.461 110.234C263.508 110.75 264.375 111.453 265.062 112.344C266.438 114.094 267.125 116.328 267.125 119.047C267.125 119.812 267.055 120.477 266.914 121.039C266.742 121.43 263.531 121.625 257.281 121.625C255.203 121.625 253.008 121.594 250.695 121.531C250.727 124.516 251.688 126.922 253.578 128.75C255.266 130.375 257.172 131.188 259.297 131.188C261.422 131.188 263.43 130.352 265.32 128.68ZM252.641 119.375C257.328 119.375 260.75 119.227 262.906 118.93C262.906 117.258 262.406 115.719 261.406 114.312C260.312 112.797 259.008 112.039 257.492 112.039C255.836 112.039 254.406 112.656 253.203 113.891C251.906 115.188 251.109 117.016 250.812 119.375H252.641ZM272.117 132.008L275.164 131V100.812L271.484 99.875L271.227 99.5469L271.484 98.2812L278.539 95.6562L278.914 95.8672V131L282.664 131.797L282.852 132.125L282.5 134H272.023L271.906 133.789L272.117 132.008ZM305.398 128.68C306.211 129.008 306.656 129.586 306.734 130.414C304.344 132.68 301.938 134.094 299.516 134.656C298.984 134.781 298.445 134.844 297.898 134.844C294.617 134.844 291.953 133.688 289.906 131.375C287.875 129.109 286.859 126.281 286.859 122.891C286.859 119.203 288.07 116.031 290.492 113.375C291.602 112.156 292.883 111.195 294.336 110.492C295.789 109.789 297.258 109.438 298.742 109.438C300.242 109.438 301.508 109.703 302.539 110.234C303.586 110.75 304.453 111.453 305.141 112.344C306.516 114.094 307.203 116.328 307.203 119.047C307.203 119.812 307.133 120.477 306.992 121.039C306.82 121.43 303.609 121.625 297.359 121.625C295.281 121.625 293.086 121.594 290.773 121.531C290.805 124.516 291.766 126.922 293.656 128.75C295.344 130.375 297.25 131.188 299.375 131.188C301.5 131.188 303.508 130.352 305.398 128.68ZM292.719 119.375C297.406 119.375 300.828 119.227 302.984 118.93C302.984 117.258 302.484 115.719 301.484 114.312C300.391 112.797 299.086 112.039 297.57 112.039C295.914 112.039 294.484 112.656 293.281 113.891C291.984 115.188 291.188 117.016 290.891 119.375H292.719ZM312.195 132.008L315.242 131V100.812L311.562 99.875L311.305 99.5469L311.562 98.2812L318.617 95.6562L318.992 95.8672V131L322.742 131.797L322.93 132.125L322.578 134H312.102L311.984 133.789L312.195 132.008ZM327.125 122.516C327.125 120.75 327.453 119.062 328.109 117.453C328.781 115.844 329.688 114.445 330.828 113.258C333.281 110.711 336.195 109.438 339.57 109.438C343.055 109.438 345.852 110.609 347.961 112.953C349.992 115.203 351.008 118.109 351.008 121.672C351.008 125.391 349.789 128.531 347.352 131.094C344.961 133.594 342.047 134.844 338.609 134.844C335.219 134.844 332.438 133.648 330.266 131.258C328.172 128.945 327.125 126.031 327.125 122.516ZM333.289 114.266C332.648 115.016 332.156 115.969 331.812 117.125C331.469 118.266 331.297 119.633 331.297 121.227C331.297 122.805 331.547 124.266 332.047 125.609C332.547 126.953 333.195 128.117 333.992 129.102C335.68 131.18 337.562 132.219 339.641 132.219C343.078 132.219 345.297 130.594 346.297 127.344C346.656 126.203 346.836 124.812 346.836 123.172C346.836 121.531 346.578 120.023 346.062 118.648C345.562 117.273 344.914 116.102 344.117 115.133C343.336 114.148 342.461 113.391 341.492 112.859C340.539 112.312 339.547 112.039 338.516 112.039C337.5 112.039 336.531 112.227 335.609 112.602C334.703 112.961 333.93 113.516 333.289 114.266ZM371.633 132.008L374.891 131V102.031L371.469 101.234L371.305 100.93L371.633 99.0312H382.789L382.883 99.2422L382.648 101.023L379.273 102.031V131L382.836 131.797L383 132.125L382.648 134H371.516L371.398 133.789L371.633 132.008ZM402.43 112.977C400.258 112.977 397.852 113.578 395.211 114.781V131L398.961 131.797L399.055 132.125L398.797 134H388.297L388.133 133.789L388.367 132.008L391.461 131V115.344L388.203 113.914L387.969 113.633L388.203 112.367L394.367 109.883L394.766 110.094V112.977C398.359 110.617 401.297 109.438 403.578 109.438C405.922 109.438 407.75 110.156 409.062 111.594C410.359 113 411.008 114.953 411.008 117.453V131L415.062 131.797L415.18 132.125L414.898 134H403.742L403.648 133.789L403.859 132.008L407.234 131V118.555C407.234 114.836 405.633 112.977 402.43 112.977ZM432.664 114.195C430.664 112.648 428.625 111.875 426.547 111.875C425.156 111.875 424.219 112.547 423.734 113.891C423.578 114.281 423.5 114.773 423.5 115.367C423.5 115.961 423.664 116.531 423.992 117.078C424.336 117.609 424.781 118.086 425.328 118.508C425.891 118.93 426.531 119.312 427.25 119.656L429.406 120.711C431.344 121.648 432.648 122.453 433.32 123.125C434.664 124.5 435.336 126.102 435.336 127.93C435.336 129.977 434.477 131.656 432.758 132.969C431.086 134.219 429 134.844 426.5 134.844C424.406 134.844 422.773 134.625 421.602 134.188C420.445 133.766 419.633 133.391 419.164 133.062C419.273 131.625 419.844 130.43 420.875 129.477C422.406 130.789 424.055 131.688 425.82 132.172C426.43 132.328 427.016 132.406 427.578 132.406C428.156 132.406 428.695 132.344 429.195 132.219C429.711 132.094 430.156 131.891 430.531 131.609C431.391 131.016 431.82 130.25 431.82 129.312C431.82 128.359 431.648 127.617 431.305 127.086C430.977 126.555 430.531 126.086 429.969 125.68C429.422 125.273 428.797 124.906 428.094 124.578L425.891 123.594C424 122.734 422.711 121.953 422.023 121.25C420.664 119.859 419.984 118.227 419.984 116.352C419.984 114.383 420.797 112.734 422.422 111.406C424 110.094 425.969 109.438 428.328 109.438C430.547 109.438 432.625 109.789 434.562 110.492C434.453 111.211 434.211 111.914 433.836 112.602C433.461 113.273 433.07 113.805 432.664 114.195ZM448.859 131.258C450.578 131.258 452.367 130.891 454.227 130.156C454.789 130.5 455.102 131.047 455.164 131.797C452.414 133.828 450.133 134.844 448.32 134.844C446.195 134.844 444.578 134.141 443.469 132.734C442.5 131.5 442.016 129.828 442.016 127.719V112.977H438.945C438.82 112.711 438.758 112.445 438.758 112.18C438.758 111.852 438.875 111.539 439.109 111.242L442.531 110.047L444.242 103.719H445.836V110.445C447.57 110.445 450.289 110.367 453.992 110.211C453.992 110.289 454 110.367 454.016 110.445L454.039 111.031C454.039 111.891 453.852 112.539 453.477 112.977H445.836V127.531C445.836 128.578 446.039 129.359 446.445 129.875C447.148 130.797 447.953 131.258 448.859 131.258ZM467.516 104.492C467.094 104.93 466.703 105.234 466.344 105.406C465.984 105.578 465.625 105.664 465.266 105.664C464.922 105.664 464.578 105.594 464.234 105.453C463.906 105.297 463.609 105.094 463.344 104.844C462.734 104.297 462.43 103.766 462.43 103.25C462.43 102.734 462.5 102.312 462.641 101.984C462.797 101.641 463 101.328 463.25 101.047C463.812 100.422 464.469 100.109 465.219 100.109C465.906 100.109 466.484 100.312 466.953 100.719C467.766 101.422 468.172 102.102 468.172 102.758C468.172 103.461 467.953 104.039 467.516 104.492ZM460.438 132.008L463.531 131V115.508L460.273 114.125L460.016 113.844L460.273 112.578L466.883 109.883L467.281 110.094V131L471.031 131.797L471.125 132.125L470.867 134H460.367L460.203 133.789L460.438 132.008ZM484.859 131.258C486.578 131.258 488.367 130.891 490.227 130.156C490.789 130.5 491.102 131.047 491.164 131.797C488.414 133.828 486.133 134.844 484.32 134.844C482.195 134.844 480.578 134.141 479.469 132.734C478.5 131.5 478.016 129.828 478.016 127.719V112.977H474.945C474.82 112.711 474.758 112.445 474.758 112.18C474.758 111.852 474.875 111.539 475.109 111.242L478.531 110.047L480.242 103.719H481.836V110.445C483.57 110.445 486.289 110.367 489.992 110.211C489.992 110.289 490 110.367 490.016 110.445L490.039 111.031C490.039 111.891 489.852 112.539 489.477 112.977H481.836V127.531C481.836 128.578 482.039 129.359 482.445 129.875C483.148 130.797 483.953 131.258 484.859 131.258ZM504.125 130.883C504.797 131.164 505.766 131.305 507.031 131.305C508.297 131.305 510.133 130.602 512.539 129.195V115.297L509.211 113.844L509.07 113.562L509.211 112.297L515.844 109.883L516.289 110.047V129.312C516.289 129.641 516.344 129.898 516.453 130.086C516.578 130.273 516.766 130.367 517.016 130.367C517.266 130.367 517.562 130.352 517.906 130.32L518.914 130.227C519.32 130.18 519.75 130.133 520.203 130.086L520.484 130.414L519.922 132.359L513.523 134.539L513.195 134.211L512.914 131.305L512.703 131.258L511.578 132.078C510.344 132.969 509.172 133.648 508.062 134.117C506.969 134.602 505.953 134.844 505.016 134.844C504.094 134.844 503.148 134.648 502.18 134.258C501.211 133.883 500.391 133.344 499.719 132.641C498.359 131.219 497.68 129.266 497.68 126.781V114.664L495.359 113.516L495.148 113.258L495.359 111.969L501.055 109.883L501.43 110.094V125.727C501.43 128.43 502.328 130.148 504.125 130.883ZM532.906 131.258C534.625 131.258 536.414 130.891 538.273 130.156C538.836 130.5 539.148 131.047 539.211 131.797C536.461 133.828 534.18 134.844 532.367 134.844C530.242 134.844 528.625 134.141 527.516 132.734C526.547 131.5 526.062 129.828 526.062 127.719V112.977H522.992C522.867 112.711 522.805 112.445 522.805 112.18C522.805 111.852 522.922 111.539 523.156 111.242L526.578 110.047L528.289 103.719H529.883V110.445C531.617 110.445 534.336 110.367 538.039 110.211C538.039 110.289 538.047 110.367 538.062 110.445L538.086 111.031C538.086 111.891 537.898 112.539 537.523 112.977H529.883V127.531C529.883 128.578 530.086 129.359 530.492 129.875C531.195 130.797 532 131.258 532.906 131.258ZM561.617 128.68C562.43 129.008 562.875 129.586 562.953 130.414C560.562 132.68 558.156 134.094 555.734 134.656C555.203 134.781 554.664 134.844 554.117 134.844C550.836 134.844 548.172 133.688 546.125 131.375C544.094 129.109 543.078 126.281 543.078 122.891C543.078 119.203 544.289 116.031 546.711 113.375C547.82 112.156 549.102 111.195 550.555 110.492C552.008 109.789 553.477 109.438 554.961 109.438C556.461 109.438 557.727 109.703 558.758 110.234C559.805 110.75 560.672 111.453 561.359 112.344C562.734 114.094 563.422 116.328 563.422 119.047C563.422 119.812 563.352 120.477 563.211 121.039C563.039 121.43 559.828 121.625 553.578 121.625C551.5 121.625 549.305 121.594 546.992 121.531C547.023 124.516 547.984 126.922 549.875 128.75C551.562 130.375 553.469 131.188 555.594 131.188C557.719 131.188 559.727 130.352 561.617 128.68ZM548.938 119.375C553.625 119.375 557.047 119.227 559.203 118.93C559.203 117.258 558.703 115.719 557.703 114.312C556.609 112.797 555.305 112.039 553.789 112.039C552.133 112.039 550.703 112.656 549.5 113.891C548.203 115.188 547.406 117.016 547.109 119.375H548.938Z" fill="white"/>
<path d="M356 264C372.569 264 386 250.569 386 234C386 217.431 372.569 204 356 204C339.431 204 326 217.431 326 234C326 250.569 339.431 264 356 264Z" stroke="white" stroke-width="2" stroke-linecap="round" stroke-linejoin="round"/>
<path d="M356 168V180" stroke="white" stroke-width="2" stroke-linecap="round" stroke-linejoin="round"/>
<path d="M356 288V300" stroke="white" stroke-width="2" stroke-linecap="round" stroke-linejoin="round"/>
<path d="M309.32 187.32L317.84 195.84" stroke="white" stroke-width="2" stroke-linecap="round" stroke-linejoin="round"/>
<path d="M394.16 272.156L402.68 280.676" stroke="white" stroke-width="2" stroke-linecap="round" stroke-linejoin="round"/>
<path d="M290 234H302" stroke="white" stroke-width="2" stroke-linecap="round" stroke-linejoin="round"/>
<path d="M410 234H422" stroke="white" stroke-width="2" stroke-linecap="round" stroke-linejoin="round"/>
<path d="M309.32 280.676L317.84 272.156" stroke="white" stroke-width="2" stroke-linecap="round" stroke-linejoin="round"/>
<path d="M394.16 195.84L402.68 187.32" stroke="white" stroke-width="2" stroke-linecap="round" stroke-linejoin="round"/>
</svg>
