<svg width="14" height="13" viewBox="0 0 14 13" fill="none" xmlns="http://www.w3.org/2000/svg">
<path d="M7.41908 0.743465V0.425426C7.41908 0.190429 7.23149 0 6.99999 0C6.76849 0 6.5809 0.190429 6.5809 0.425426V0.743465C3.08202 0.922759 0.273334 3.3314 0 6.36145C0.340211 6.11358 0.856366 5.95535 1.43443 5.95535C2.33402 5.95535 3.08356 6.33831 3.25315 6.84645H3.32774C3.50165 6.34161 4.24895 5.96198 5.14457 5.96198C5.72435 5.96198 6.24068 6.12162 6.5809 6.37069V10.6372C6.5809 11.2315 6.10451 11.715 5.51911 11.715C4.93368 11.715 4.45729 11.2315 4.45729 10.6372C4.45729 10.4022 4.2697 10.2118 4.0382 10.2118C3.8067 10.2118 3.61911 10.4022 3.61911 10.6372C3.61911 11.7008 4.47154 12.5661 5.51928 12.5661C6.56703 12.5661 7.4191 11.7008 7.4191 10.6372V6.36373C7.75914 6.11481 8.27529 5.95535 8.85474 5.95535C9.75433 5.95535 10.5039 6.33831 10.6735 6.84645H10.7481C10.9219 6.34161 11.6692 5.96198 12.5649 5.96198C13.1433 5.96198 13.6598 6.12039 14 6.36862C13.7304 3.33521 10.9204 0.923118 7.41908 0.743465Z" fill="black"/>
</svg>
